<svg width="127" height="109" viewBox="0 0 127 109" fill="none" xmlns="http://www.w3.org/2000/svg">
<path fill-rule="evenodd" clip-rule="evenodd" d="M9.01645 54.2813C8.2336 54.9495 7.11522 55.0534 6.22269 54.5408C4.76708 53.7049 4.57369 51.6816 5.8446 50.5851L55.8651 7.42855C59.6297 4.18058 65.2087 4.19172 68.9602 7.45469L118.751 50.7611C119.933 51.7891 119.783 53.6673 118.453 54.4948C117.591 55.0311 116.481 54.947 115.71 54.287L68.9172 14.2528C65.178 11.0537 59.6672 11.0504 55.9242 14.2451L9.01645 54.2813ZM9.97009 103.031C9.20087 103.675 8.10472 103.752 7.25268 103.222C5.91838 102.392 5.77686 100.504 6.9725 99.4844L57.8717 56.074C61.6382 52.8616 67.1883 52.8885 70.9235 56.1372L120.752 99.4763C121.934 100.504 121.784 102.383 120.454 103.21C119.592 103.746 118.482 103.662 117.71 103.002L70.8578 62.9165C67.1451 59.74 61.6806 59.7116 57.9351 62.8493L9.97009 103.031Z" fill="#353434"/>
<path d="M6.22269 54.5408L3.73272 58.8767L3.73273 58.8767L6.22269 54.5408ZM9.01645 54.2813L5.77046 50.4782L5.77045 50.4782L9.01645 54.2813ZM5.8446 50.5851L2.57837 46.7994L5.8446 50.5851ZM55.8651 7.42855L52.5989 3.64283V3.64283L55.8651 7.42855ZM68.9602 7.45469L65.6789 11.2273V11.2273L68.9602 7.45469ZM118.751 50.7611L122.033 46.9884L122.033 46.9884L118.751 50.7611ZM118.453 54.4948L115.812 50.2493H115.812L118.453 54.4948ZM115.71 54.287L112.459 58.0862L112.459 58.0862L115.71 54.287ZM68.9172 14.2528L65.6667 18.0521V18.0521L68.9172 14.2528ZM55.9242 14.2451L59.1702 18.0482V18.0482L55.9242 14.2451ZM7.25268 103.222L4.61146 107.468L4.61149 107.468L7.25268 103.222ZM9.97009 103.031L6.75925 99.1979H6.75924L9.97009 103.031ZM6.9725 99.4844L3.72792 95.6801H3.72792L6.9725 99.4844ZM57.8717 56.074L54.6271 52.2696L57.8717 56.074ZM70.9235 56.1372L74.2048 52.3646L70.9235 56.1372ZM120.752 99.4763L117.471 103.249L117.471 103.249L120.752 99.4763ZM120.454 103.21L117.813 98.9646L117.813 98.9646L120.454 103.21ZM117.71 103.002L120.961 99.203L117.71 103.002ZM70.8578 62.9165L74.1083 59.1173L70.8578 62.9165ZM57.9351 62.8493L54.7242 59.0165L54.7242 59.0165L57.9351 62.8493ZM3.73273 58.8767C6.45772 60.4416 9.87228 60.1245 12.2624 58.0844L5.77045 50.4782C6.59491 49.7745 7.77271 49.6652 8.71265 50.2049L3.73273 58.8767ZM2.57837 46.7994C-1.30188 50.1472 -0.711462 56.3246 3.73272 58.8767L8.71266 50.2049C10.2456 51.0853 10.4493 53.2161 9.11084 54.3708L2.57837 46.7994ZM52.5989 3.64283L2.57837 46.7994L9.11084 54.3708L59.1314 11.2143L52.5989 3.64283ZM72.2416 3.68204C66.6142 -1.21241 58.2457 -1.22913 52.5989 3.64283L59.1314 11.2143C61.0136 9.59029 63.8031 9.59586 65.6789 11.2273L72.2416 3.68204ZM122.033 46.9884L72.2416 3.68203L65.6789 11.2273L115.47 54.5337L122.033 46.9884ZM121.094 58.7402C125.281 56.1359 125.753 50.224 122.033 46.9884L115.47 54.5337C114.114 53.3541 114.286 51.1988 115.812 50.2493L121.094 58.7402ZM112.459 58.0862C114.887 60.1635 118.381 60.4282 121.094 58.7402L115.812 50.2493C116.801 49.6339 118.075 49.7304 118.96 50.4877L112.459 58.0862ZM65.6667 18.0521L112.459 58.0862L118.96 50.4878L72.1677 10.4536L65.6667 18.0521ZM59.1702 18.0482C61.0417 16.4509 63.7971 16.4525 65.6667 18.0521L72.1677 10.4536C66.559 5.65492 58.2927 5.65 52.6782 10.442L59.1702 18.0482ZM12.2624 58.0844L59.1702 18.0482L52.6782 10.442L5.77046 50.4782L12.2624 58.0844ZM4.61149 107.468C7.2984 109.139 10.7552 108.896 13.1809 106.864L6.75924 99.1979C7.64657 98.4546 8.91103 98.3654 9.89387 98.9768L4.61149 107.468ZM3.72792 95.6801C-0.0425844 98.8959 0.403726 104.85 4.61146 107.468L9.8939 98.9769C11.433 99.9344 11.5963 102.112 10.2171 103.289L3.72792 95.6801ZM54.6271 52.2696L3.72792 95.6801L10.2171 103.289L61.1163 59.8783L54.6271 52.2696ZM74.2048 52.3646C68.602 47.4915 60.2769 47.4511 54.6271 52.2696L61.1163 59.8783C62.9995 58.2721 65.7746 58.2855 67.6422 59.9099L74.2048 52.3646ZM124.033 95.7037L74.2048 52.3646L67.6422 59.9099L117.471 103.249L124.033 95.7037ZM123.095 107.456C127.281 104.851 127.753 98.9392 124.033 95.7037L117.471 103.249C116.115 102.069 116.287 99.914 117.813 98.9646L123.095 107.456ZM114.46 106.801C116.888 108.879 120.382 109.143 123.095 107.456L117.813 98.9646C118.802 98.3492 120.076 98.4457 120.961 99.203L114.46 106.801ZM67.6073 66.7157L114.46 106.801L120.961 99.203L74.1083 59.1173L67.6073 66.7157ZM61.1459 66.6822C63.0187 65.1133 65.7509 65.1275 67.6073 66.7157L74.1083 59.1173C68.5392 54.3526 60.3425 54.31 54.7242 59.0165L61.1459 66.6822ZM13.1809 106.864L61.1459 66.6821L54.7242 59.0165L6.75925 99.1979L13.1809 106.864Z" fill="#453E3E"/>
</svg>
